# Blender v2.82 (sub 7) OBJ File: 'Queen.blend'
# www.blender.org
mtllib Queen.mtl
o Bishop_Cylinder.002
v -0.000000 -0.024745 -0.009416
v 0.006661 -0.024745 -0.006657
v 0.009420 -0.024745 0.000005
v 0.006661 -0.024745 0.006666
v -0.000000 -0.024745 0.009425
v -0.006661 -0.024745 0.006666
v -0.009420 -0.024745 0.000005
v -0.006661 -0.024745 -0.006657
v -0.000000 -0.027753 -0.011242
v 0.007953 -0.027753 -0.007948
v 0.011247 -0.027753 0.000005
v 0.007953 -0.027753 0.007957
v -0.000000 -0.027753 0.011252
v -0.007953 -0.027753 0.007957
v -0.011247 -0.027753 0.000005
v -0.007953 -0.027753 -0.007948
v -0.000000 -0.034942 -0.018477
v 0.013069 -0.034942 -0.013064
v 0.018482 -0.034942 0.000005
v 0.013069 -0.034942 0.013073
v -0.000000 -0.034942 0.018487
v -0.013069 -0.034942 0.013073
v -0.018482 -0.034942 0.000005
v -0.013069 -0.034942 -0.013064
v -0.000000 -0.040242 -0.016092
v 0.011382 -0.040242 -0.011378
v 0.016097 -0.040242 0.000005
v 0.011382 -0.040242 0.011387
v -0.000000 -0.040242 0.016102
v -0.011382 -0.040242 0.011387
v -0.016097 -0.040242 0.000005
v -0.011382 -0.040242 -0.011378
v -0.000000 -0.047973 -0.019995
v 0.014142 -0.047973 -0.014138
v 0.020000 -0.047973 0.000005
v 0.014142 -0.047973 0.014147
v -0.000000 -0.047973 0.020005
v -0.014142 -0.047973 0.014147
v -0.020000 -0.047973 0.000005
v -0.014142 -0.047973 -0.014138
v -0.000000 -0.043776 -0.019698
v 0.013932 -0.043776 -0.013928
v 0.019703 -0.043776 0.000005
v 0.013932 -0.043776 0.013937
v -0.000000 -0.043776 0.019708
v -0.013932 -0.043776 0.013937
v -0.019703 -0.043776 0.000005
v -0.013932 -0.043776 -0.013928
v -0.000000 -0.026422 -0.011232
v 0.007945 -0.026422 -0.007941
v 0.011236 -0.026422 0.000005
v 0.007945 -0.026422 0.007950
v -0.000000 -0.026422 0.011241
v -0.007945 -0.026422 0.007950
v -0.011236 -0.026422 0.000005
v -0.007945 -0.026422 -0.007941
v 0.004963 -0.009039 -0.004958
v -0.000000 -0.009039 -0.007014
v 0.007019 -0.009039 0.000005
v 0.004963 -0.009039 0.004968
v -0.000000 -0.009039 0.007023
v -0.004963 -0.009039 0.004968
v -0.007019 -0.009039 0.000005
v -0.004963 -0.009039 -0.004958
v 0.005175 0.005526 -0.005170
v -0.000000 0.005526 -0.007314
v 0.007319 0.005526 0.000005
v 0.005175 0.005526 0.005180
v -0.000000 0.005526 0.007323
v -0.005175 0.005526 0.005180
v -0.007319 0.005526 0.000005
v -0.005175 0.005526 -0.005170
v 0.006879 0.009026 -0.006895
v -0.000000 0.009026 -0.009744
v 0.009728 0.009026 -0.000016
v 0.006879 0.009026 0.006863
v -0.000000 0.009026 0.009712
v -0.006879 0.009026 0.006863
v -0.009728 0.009026 -0.000016
v -0.006879 0.009026 -0.006895
v -0.009215 0.007294 -0.009263
v -0.000000 0.007294 -0.013080
v -0.009215 0.007294 0.009167
v -0.013032 0.007294 -0.000048
v 0.009215 0.007294 0.009167
v -0.000000 0.007294 0.012984
v 0.009215 0.007294 -0.009263
v 0.013032 0.007294 -0.000048
v 0.006477 0.021568 -0.006474
v 0.009160 0.021568 0.000003
v 0.006477 0.021568 0.006480
v -0.000000 0.021568 0.009163
v -0.006477 0.021568 0.006480
v -0.009160 0.021568 0.000003
v -0.006477 0.021568 -0.006474
v -0.000000 0.021568 -0.009157
v 0.005333 0.014526 -0.005332
v 0.007542 0.014526 0.000001
v 0.005333 0.014526 0.005334
v -0.000000 0.014526 0.007543
v -0.005333 0.014526 0.005334
v -0.007542 0.014526 0.000001
v -0.005333 0.014526 -0.005332
v -0.000000 0.014526 -0.007541
v -0.000000 0.011956 -0.007868
v -0.005559 0.011956 -0.005565
v -0.007862 0.011957 -0.000006
v -0.005559 0.011957 0.005553
v -0.000000 0.011957 0.007855
v 0.005559 0.011957 0.005553
v 0.007862 0.011957 -0.000006
v 0.005559 0.011956 -0.005565
v -0.000000 0.034281 -0.002003
v -0.000000 0.030265 -0.002003
v 0.001420 0.034281 -0.001415
v 0.002008 0.032273 -0.002003
v 0.001420 0.030265 -0.001415
v 0.002008 0.034281 0.000005
v 0.002840 0.032273 0.000005
v 0.002008 0.030265 0.000005
v 0.001420 0.034281 0.001424
v 0.002008 0.032273 0.002013
v 0.001420 0.030265 0.001424
v -0.000000 0.035113 0.000005
v -0.000000 0.034281 0.002013
v -0.000000 0.032273 0.002844
v -0.000000 0.030265 0.002013
v -0.001420 0.034281 0.001424
v -0.002008 0.032273 0.002013
v -0.001420 0.030265 0.001424
v -0.002008 0.034281 0.000005
v -0.002840 0.032273 0.000005
v -0.002008 0.030265 0.000005
v -0.001420 0.034281 -0.001415
v -0.002008 0.032273 -0.002003
v -0.001420 0.030265 -0.001415
v -0.000000 0.032273 -0.002835
v 0.009235 0.011019 -0.000009
v 0.006530 0.011019 0.006521
v -0.000000 0.011019 0.009226
v -0.006530 0.011019 0.006521
v -0.009235 0.011019 -0.000009
v -0.006530 0.011019 -0.006540
v -0.000000 0.011019 -0.009245
v 0.006530 0.011019 -0.006540
v -0.000000 0.024914 -0.011847
v -0.008379 0.024914 -0.008376
v -0.011850 0.024914 0.000003
v -0.008379 0.024914 0.008382
v -0.000000 0.024914 0.011853
v 0.008379 0.024914 0.008382
v 0.011850 0.024914 0.000003
v 0.008379 0.024914 -0.008376
v -0.000000 0.021557 -0.009041
v -0.000000 0.025674 -0.010867
v -0.007686 0.025674 -0.007683
v -0.006396 0.021557 -0.006391
v -0.010870 0.025674 0.000004
v -0.009045 0.021557 0.000004
v -0.007686 0.025674 0.007690
v -0.006396 0.021557 0.006400
v -0.000000 0.025674 0.010874
v -0.000000 0.021557 0.009049
v 0.007686 0.025674 0.007690
v 0.006395 0.021557 0.006400
v 0.010870 0.025674 0.000004
v 0.009045 0.021557 0.000004
v 0.007686 0.025674 -0.007683
v 0.006396 0.021557 -0.006391
v -0.012668 0.029122 0.005251
v -0.005247 0.029123 -0.012663
v 0.005247 0.029122 0.012672
v 0.012667 0.029123 -0.005243
v 0.012668 0.029122 0.005251
v -0.012667 0.029123 -0.005243
v -0.005247 0.029122 0.012672
v 0.005247 0.029123 -0.012663
v -0.000000 -0.029374 -0.011706
v 0.008281 -0.029374 -0.008276
v 0.011711 -0.029374 0.000005
v 0.008281 -0.029374 0.008285
v -0.000000 -0.029374 0.011715
v -0.008281 -0.029374 0.008285
v -0.011711 -0.029374 0.000005
v -0.008281 -0.029374 -0.008276
vt 0.125000 1.000000
vt 0.250000 1.000000
vt 0.250001 1.000000
vt 0.125081 1.000000
vt 0.005057 0.872874
vt 0.124798 0.872875
vt 0.124934 0.887236
vt -0.000540 0.887236
vt 0.029356 0.614077
vt 0.135479 0.611765
vt 0.125442 0.712961
vt 0.008353 0.713062
vt 0.249994 0.872878
vt 0.249999 0.887236
vt 0.254919 0.606182
vt 0.250214 0.712717
vt 0.374998 0.872881
vt 0.375000 0.887236
vt 0.379028 0.600600
vt 0.375175 0.712474
vt 0.499996 0.872883
vt 0.500000 0.887236
vt 0.506407 0.598288
vt 0.500279 0.712374
vt 0.624995 0.872881
vt 0.625000 0.887236
vt 0.633786 0.600600
vt 0.625383 0.712474
vt 0.749999 0.872878
vt 0.750001 0.887236
vt 0.757894 0.606182
vt 0.750344 0.712718
vt 0.875195 0.872875
vt 0.875066 0.887236
vt 0.877334 0.611765
vt 0.875116 0.712961
vt 0.994935 0.872874
vt 1.000540 0.887236
vt 0.983457 0.614077
vt 0.992206 0.713062
vt 0.750000 0.479926
vt 0.912582 0.412582
vt 0.979926 0.250000
vt 0.912583 0.087418
vt 0.750000 0.020074
vt 0.587417 0.087418
vt 0.520074 0.250000
vt 0.587418 0.412583
vt 0.000270 0.948581
vt 0.124973 0.948581
vt 0.000000 1.000000
vt 0.250000 0.948580
vt 0.375000 0.948581
vt 0.375000 1.000000
vt 0.500000 0.948580
vt 0.500000 1.000000
vt 0.625000 0.948581
vt 0.625000 1.000000
vt 0.750000 0.948581
vt 0.750000 1.000000
vt 0.875027 0.948581
vt 0.875000 1.000000
vt 0.999731 0.948581
vt 1.000000 1.000000
vt 0.124991 0.823525
vt 0.005394 0.823520
vt 0.249987 0.823538
vt 0.374989 0.823551
vt 0.499984 0.823557
vt 0.624979 0.823551
vt 0.749982 0.823538
vt 0.874977 0.823526
vt 0.994574 0.823520
vt 0.749999 1.000000
vt 0.874919 1.000000
vt 0.875000 1.000000
vt 0.750000 1.000000
vt 0.500000 1.000000
vt 0.375000 1.000000
vt 0.625000 1.000000
vt 0.999682 1.000000
vt 0.000318 1.000000
vt 0.006364 0.995033
vt 0.129375 0.995032
vt 0.125002 0.991842
vt 0.009029 0.992090
vt 0.250000 1.000000
vt 0.125000 1.000000
vt 0.500000 1.000000
vt 0.375000 1.000000
vt 0.625000 1.000000
vt 1.000000 1.000000
vt 0.000000 1.000000
vt 0.251459 0.995033
vt 0.373541 0.995033
vt 0.374370 0.991575
vt 0.250304 0.991517
vt 0.498541 0.995033
vt 0.623541 0.995033
vt 0.623893 0.991576
vt 0.498843 0.991711
vt 0.748541 0.995033
vt 0.873543 0.995033
vt 0.876624 0.991842
vt 0.749080 0.991517
vt 0.996554 0.995033
vt 0.993050 0.992090
vt 0.704945 0.336036
vt 0.746103 0.242592
vt 0.634634 0.242589
vt 0.661938 0.336039
vt 0.504776 0.242579
vt 0.544864 0.336057
vt 0.378863 0.242564
vt 0.420116 0.336091
vt 0.253891 0.242557
vt 0.295080 0.336110
vt 0.130253 0.242565
vt 0.170189 0.336093
vt 0.856250 0.242587
vt 0.969337 0.242576
vt 0.931846 0.271999
vt 0.826147 0.272015
vt 0.733200 0.272016
vt 0.639463 0.272014
vt 0.516823 0.272010
vt 0.021123 0.242582
vt 0.056067 0.336039
vt 0.142596 0.272007
vt 0.034520 0.272021
vt 0.854141 0.336075
vt 0.747810 0.336038
vt 0.391798 0.272008
vt 0.266801 0.272007
vt 0.800269 0.758816
vt 0.676009 0.758580
vt 0.550986 0.758604
vt 0.425946 0.758689
vt 0.301503 0.758604
vt 0.181518 0.758611
vt 0.465667 0.758549
vt 0.347159 0.758816
vt 0.249985 0.758990
vt 0.897935 0.758991
vt 0.389593 0.639315
vt 0.458117 0.639164
vt 0.576501 0.638925
vt 0.144275 0.638932
vt 0.264419 0.638876
vt 0.389175 0.638909
vt 0.514218 0.638877
vt 0.639318 0.638928
vt 0.763099 0.639164
vt 0.831808 0.639315
vt 0.750000 0.500000
vt 0.750000 0.750000
vt 0.625000 0.750000
vt 0.625000 0.500000
vt 0.750000 0.250000
vt 0.625000 0.250000
vt 0.687500 1.000000
vt 0.500000 0.750000
vt 0.500000 0.500000
vt 0.500000 0.250000
vt 0.562500 1.000000
vt 0.375000 0.750000
vt 0.375000 0.500000
vt 0.375000 0.250000
vt 0.437500 1.000000
vt 0.250000 0.750000
vt 0.250000 0.500000
vt 0.250000 0.250000
vt 0.312500 1.000000
vt 0.125000 0.750000
vt 0.125000 0.500000
vt 0.125000 0.250000
vt 0.187500 1.000000
vt 0.062500 1.000000
vt 0.000000 0.750000
vt 0.000000 0.500000
vt 0.000000 0.250000
vt 1.000000 0.250000
vt 1.000000 0.500000
vt 0.875000 0.500000
vt 0.875000 0.250000
vt 1.000000 0.750000
vt 0.937500 1.000000
vt 0.875000 0.750000
vt 0.812500 1.000000
vt 0.744400 0.257339
vt 0.858716 0.257338
vt 0.977282 0.257333
vt 0.011507 0.257340
vt 0.130865 0.257336
vt 0.255600 0.257336
vt 0.380599 0.257336
vt 0.505608 0.257337
vt 0.629821 0.257338
vt 0.511215 0.264674
vt 0.386199 0.264672
vt 0.511215 0.264674
vt 0.634642 0.264676
vt 0.738800 0.264678
vt 0.511215 0.264674
vt 0.516823 0.272010
vt 0.954564 0.264666
vt 0.954564 0.264666
vt 0.261201 0.264671
vt 0.826147 0.272015
vt 0.136731 0.264671
vt 0.023014 0.264681
vt 0.136731 0.264671
vt 0.931846 0.271999
vt 0.842431 0.264676
vt 0.634642 0.264676
vt 0.034520 0.272021
vt 0.142596 0.272007
vt 0.639463 0.272014
vt 0.738800 0.264678
vt 0.386199 0.264672
vt 0.733200 0.272016
vt 0.842431 0.264676
vt 0.261201 0.264671
vt 0.266801 0.272007
vt 0.826147 0.272015
vt 0.391798 0.272008
vt 0.516823 0.272010
vt 0.954564 0.264666
vt 0.136731 0.264671
vt 0.142596 0.272007
vt 0.634642 0.264676
vt 0.733200 0.272016
vt 0.266801 0.272007
vt 0.738800 0.264678
vt 0.261201 0.264671
vt 0.391798 0.272008
vt 0.842431 0.264676
vt 0.639463 0.272014
vt 0.386199 0.264672
vn -0.9148 0.1399 -0.3789
vn -0.3700 0.2557 -0.8932
vn -0.2785 0.6859 -0.6723
vn -0.8932 0.2557 -0.3700
vn -0.6723 0.6859 -0.2785
vn -0.8932 0.2557 0.3700
vn -0.6723 0.6859 0.2785
vn -0.3700 0.2557 0.8932
vn -0.2785 0.6859 0.6723
vn 0.3700 0.2557 0.8932
vn 0.2785 0.6859 0.6723
vn 0.8932 0.2557 0.3700
vn 0.6723 0.6859 0.2785
vn 0.8932 0.2557 -0.3700
vn 0.6723 0.6859 -0.2785
vn 0.3700 0.2557 -0.8932
vn 0.2785 0.6859 -0.6723
vn 0.0000 -1.0000 0.0000
vn -0.2705 0.7074 -0.6530
vn -0.6530 0.7074 -0.2705
vn -0.6530 0.7074 0.2705
vn -0.2705 0.7074 0.6530
vn 0.2705 0.7074 0.6530
vn 0.6530 0.7074 0.2705
vn 0.6530 0.7074 -0.2705
vn 0.2705 0.7074 -0.6530
vn -0.3534 -0.3839 -0.8531
vn -0.8531 -0.3839 -0.3534
vn -0.8531 -0.3839 0.3534
vn -0.3534 -0.3839 0.8531
vn 0.3534 -0.3839 0.8531
vn 0.8531 -0.3839 0.3534
vn 0.8531 -0.3839 -0.3534
vn 0.3534 -0.3839 -0.8531
vn -0.3819 0.0652 -0.9219
vn -0.9219 0.0652 -0.3819
vn -0.9219 0.0652 0.3819
vn -0.3819 0.0652 0.9219
vn 0.3819 0.0652 0.9219
vn 0.9219 0.0652 0.3819
vn 0.9219 0.0652 -0.3819
vn 0.3819 0.0652 -0.9219
vn 0.3827 0.0074 -0.9239
vn 0.9239 0.0074 -0.3827
vn 0.9239 0.0074 0.3827
vn 0.3827 0.0074 0.9239
vn -0.3827 0.0074 0.9239
vn -0.9239 0.0074 0.3827
vn -0.9239 0.0074 -0.3827
vn -0.3827 0.0074 -0.9239
vn 0.9237 -0.0190 -0.3826
vn -0.3789 0.1399 0.9148
vn 0.9148 0.1399 0.3789
vn 0.3789 0.1399 -0.9148
vn -0.3789 0.1399 -0.9148
vn -0.9148 0.1399 0.3789
vn 0.3789 0.1399 0.9148
vn 0.9148 0.1399 -0.3789
vn -0.1875 0.8718 -0.4526
vn -0.9237 -0.0190 -0.3826
vn -0.3826 -0.0190 0.9237
vn 0.9237 -0.0190 0.3826
vn 0.3826 -0.0190 -0.9237
vn -0.3826 -0.0190 -0.9237
vn -0.9237 -0.0190 0.3826
vn 0.3826 -0.0190 0.9237
vn -0.4573 0.8689 0.1894
vn 0.1902 0.8677 0.4593
vn 0.4545 0.8706 -0.1883
vn -0.4545 0.8706 -0.1883
vn -0.1902 0.8677 0.4593
vn 0.4573 0.8689 0.1894
vn 0.1875 0.8718 -0.4526
vn 0.1205 -0.9491 -0.2910
vn 0.2944 -0.9479 0.1219
vn -0.1225 -0.9474 0.2958
vn -0.2924 -0.9486 -0.1211
vn 0.2924 -0.9486 -0.1211
vn 0.1225 -0.9474 0.2958
vn -0.2944 -0.9479 0.1219
vn -0.1205 -0.9491 -0.2910
vn 0.3744 -0.2074 -0.9038
vn 0.9038 -0.2075 -0.3743
vn 0.9037 -0.2077 0.3744
vn 0.3743 -0.2078 0.9037
vn -0.3743 -0.2078 0.9037
vn -0.7417 -0.5963 -0.3072
vn -0.3072 -0.5963 -0.7417
vn 0.7417 -0.5963 -0.3072
vn -0.9037 -0.2077 0.3744
vn -0.7416 -0.5963 0.3072
vn -0.9038 -0.2075 -0.3743
vn 0.3072 -0.5963 0.7416
vn 0.7416 -0.5963 0.3072
vn -0.3744 -0.2074 -0.9038
vn 0.9004 0.2239 -0.3730
vn 0.9009 0.2216 0.3732
vn 0.3733 0.2200 0.9012
vn -0.3733 0.2200 0.9012
vn -0.9009 0.2216 0.3732
vn -0.9004 0.2239 -0.3730
vn -0.3728 0.2255 -0.9001
vn 0.3728 0.2255 -0.9001
vn -0.2271 0.8048 -0.5483
vn -0.5488 0.8044 -0.2273
vn -0.5495 0.8039 0.2276
vn -0.2278 0.8035 0.5500
vn 0.2278 0.8035 0.5500
vn 0.5495 0.8039 0.2276
vn 0.5488 0.8044 -0.2273
vn 0.3801 0.1168 -0.9176
vn 0.3574 0.3574 -0.8629
vn 0.3574 -0.3574 -0.8629
vn 0.1566 0.9125 -0.3780
vn 0.8629 0.3574 -0.3574
vn 0.8629 -0.3574 -0.3574
vn 0.3780 0.9125 -0.1566
vn 0.8629 0.3574 0.3574
vn 0.8629 -0.3574 0.3574
vn 0.3780 0.9125 0.1566
vn 0.3574 0.3574 0.8629
vn 0.3574 -0.3574 0.8629
vn 0.1566 0.9125 0.3780
vn -0.3574 0.3574 0.8629
vn -0.3574 -0.3574 0.8629
vn -0.1566 0.9125 0.3780
vn -0.3780 0.9125 0.1566
vn -0.8629 0.3574 0.3574
vn -0.8629 -0.3574 0.3574
vn -0.8629 -0.3574 -0.3574
vn -0.3780 0.9125 -0.1566
vn -0.8629 0.3574 -0.3574
vn -0.3574 -0.3574 -0.8629
vn -0.1566 0.9125 -0.3780
vn -0.3574 0.3574 -0.8629
vn -0.3072 -0.5963 0.7416
vn -0.3801 0.1168 -0.9176
vn -0.9177 0.1152 -0.3801
vn -0.9180 0.1131 0.3802
vn -0.3803 0.1115 0.9181
vn 0.3803 0.1115 0.9181
vn 0.9180 0.1131 0.3802
vn 0.9177 0.1152 -0.3801
vn 0.2271 0.8048 -0.5483
vn 0.3072 -0.5963 -0.7417
vn -0.3067 0.5982 -0.7403
vn -0.7403 0.5982 -0.3067
vn -0.7403 0.5982 0.3067
vn -0.3067 0.5982 0.7404
vn 0.3067 0.5982 0.7404
vn 0.7403 0.5982 0.3067
vn 0.7403 0.5982 -0.3067
vn 0.3067 0.5982 -0.7403
vn -0.6327 0.7287 -0.2621
vn -0.3541 0.3791 0.8549
vn 0.4955 0.6382 0.5892
vn -0.8549 0.3791 0.3541
vn 0.4952 0.6384 -0.5892
vn -0.8550 0.3790 -0.3541
vn -0.4952 0.6384 -0.5892
vn -0.3541 0.3789 -0.8550
vn -0.7724 -0.5488 -0.3199
vn 0.3541 0.3789 -0.8550
vn 0.6327 0.7287 -0.2621
vn 0.8550 0.3790 -0.3541
vn -0.4955 0.6382 0.5892
vn 0.8549 0.3791 0.3541
vn -0.6328 0.7286 0.2621
vn 0.3541 0.3791 0.8549
vn -0.7722 -0.5489 0.3199
vn 0.0661 0.6382 0.7670
vn -0.0666 0.6385 -0.7668
vn 0.5893 0.6384 -0.4952
vn -0.2620 0.7288 -0.6326
vn -0.3200 -0.5486 -0.7724
vn 0.2622 0.7285 0.6329
vn -0.5891 0.6382 0.4955
vn 0.3198 -0.5491 0.7722
vn -0.7669 0.6383 0.0664
vn 0.7669 0.6383 -0.0663
vn 0.7723 -0.5488 -0.3199
vn 0.6328 0.7286 0.2621
vn -0.7669 0.6383 -0.0663
vn -0.3198 -0.5491 0.7722
vn 0.7669 0.6383 0.0664
vn -0.5893 0.6384 -0.4952
vn 0.5891 0.6382 0.4955
vn -0.2622 0.7285 0.6329
vn 0.2620 0.7288 -0.6326
vn 0.7722 -0.5489 0.3199
vn 0.0666 0.6385 -0.7668
vn 0.3200 -0.5486 -0.7724
vn -0.0661 0.6382 0.7670
vn 0.2544 0.7470 -0.6143
vn 0.6143 0.7470 -0.2544
vn 0.6143 0.7470 0.2544
vn 0.2544 0.7470 0.6143
vn -0.2544 0.7470 0.6143
vn -0.6143 0.7470 0.2544
vn -0.6143 0.7470 -0.2544
vn -0.2544 0.7470 -0.6143
usemtl None
s off
f 8/1/1 7/2/1 63/3/1 64/4/1
f 178/5/2 185/6/2 16/7/2 9/8/2
f 41/9/3 48/10/3 32/11/3 25/12/3
f 185/6/4 184/13/4 15/14/4 16/7/4
f 48/10/5 47/15/5 31/16/5 32/11/5
f 184/13/6 183/17/6 14/18/6 15/14/6
f 47/15/7 46/19/7 30/20/7 31/16/7
f 183/17/8 182/21/8 13/22/8 14/18/8
f 46/19/9 45/23/9 29/24/9 30/20/9
f 182/21/10 181/25/10 12/26/10 13/22/10
f 45/23/11 44/27/11 28/28/11 29/24/11
f 181/25/12 180/29/12 11/30/12 12/26/12
f 44/27/13 43/31/13 27/32/13 28/28/13
f 180/29/14 179/33/14 10/34/14 11/30/14
f 43/31/15 42/35/15 26/36/15 27/32/15
f 179/33/16 178/37/16 9/38/16 10/34/16
f 42/35/17 41/39/17 25/40/17 26/36/17
f 33/41/18 34/42/18 35/43/18 36/44/18 37/45/18 38/46/18 39/47/18 40/48/18
f 49/49/19 56/50/19 8/1/19 1/51/19
f 56/50/20 55/52/20 7/2/20 8/1/20
f 55/52/21 54/53/21 6/54/21 7/2/21
f 54/53/22 53/55/22 5/56/22 6/54/22
f 53/55/23 52/57/23 4/58/23 5/56/23
f 52/57/24 51/59/24 3/60/24 4/58/24
f 51/59/25 50/61/25 2/62/25 3/60/25
f 50/61/26 49/63/26 1/64/26 2/62/26
f 25/12/27 32/11/27 24/65/27 17/66/27
f 32/11/28 31/16/28 23/67/28 24/65/28
f 31/16/29 30/20/29 22/68/29 23/67/29
f 30/20/30 29/24/30 21/69/30 22/68/30
f 29/24/31 28/28/31 20/70/31 21/69/31
f 28/28/32 27/32/32 19/71/32 20/70/32
f 27/32/33 26/36/33 18/72/33 19/71/33
f 26/36/34 25/40/34 17/73/34 18/72/34
f 40/48/35 48/10/35 41/9/35 33/41/35
f 39/47/36 47/15/36 48/10/36 40/48/36
f 38/46/37 46/19/37 47/15/37 39/47/37
f 37/45/38 45/23/38 46/19/38 38/46/38
f 36/44/39 44/27/39 45/23/39 37/45/39
f 35/43/40 43/31/40 44/27/40 36/44/40
f 34/42/41 42/35/41 43/31/41 35/43/41
f 33/41/42 41/39/42 42/35/42 34/42/42
f 10/34/43 9/38/43 49/63/43 50/61/43
f 11/30/44 10/34/44 50/61/44 51/59/44
f 12/26/45 11/30/45 51/59/45 52/57/45
f 13/22/46 12/26/46 52/57/46 53/55/46
f 14/18/47 13/22/47 53/55/47 54/53/47
f 15/14/48 14/18/48 54/53/48 55/52/48
f 16/7/49 15/14/49 55/52/49 56/50/49
f 9/8/50 16/7/50 56/50/50 49/49/50
f 59/74/51 57/75/51 65/76/51 67/77/51
f 6/54/52 5/56/52 61/78/52 62/79/52
f 4/58/53 3/60/53 59/74/53 60/80/53
f 2/62/54 1/64/54 58/81/54 57/75/54
f 1/51/55 8/1/55 64/4/55 58/82/55
f 7/2/56 6/54/56 62/79/56 63/3/56
f 5/56/57 4/58/57 60/80/57 61/78/57
f 3/60/58 2/62/58 57/75/58 59/74/58
f 82/83/59 81/84/59 80/85/59 74/86/59
f 64/4/60 63/3/60 71/87/60 72/88/60
f 62/79/61 61/78/61 69/89/61 70/90/61
f 60/80/62 59/74/62 67/77/62 68/91/62
f 57/75/63 58/81/63 66/92/63 65/76/63
f 58/82/64 64/4/64 72/88/64 66/93/64
f 63/3/65 62/79/65 70/90/65 71/87/65
f 61/78/66 60/80/66 68/91/66 69/89/66
f 84/94/67 83/95/67 78/96/67 79/97/67
f 86/98/68 85/99/68 76/100/68 77/101/68
f 88/102/69 87/103/69 73/104/69 75/105/69
f 81/84/70 84/94/70 79/97/70 80/85/70
f 83/95/71 86/98/71 77/101/71 78/96/71
f 85/99/72 88/102/72 75/105/72 76/100/72
f 87/103/73 82/106/73 74/107/73 73/104/73
f 65/76/74 66/92/74 82/106/74 87/103/74
f 68/91/75 67/77/75 88/102/75 85/99/75
f 70/90/76 69/89/76 86/98/76 83/95/76
f 72/88/77 71/87/77 84/94/77 81/84/77
f 67/77/78 65/76/78 87/103/78 88/102/78
f 69/89/79 68/91/79 85/99/79 86/98/79
f 71/87/80 70/90/80 83/95/80 84/94/80
f 66/93/81 72/88/81 81/84/81 82/83/81
f 104/108/82 96/109/82 89/110/82 97/111/82
f 97/111/83 89/110/83 90/112/83 98/113/83
f 98/113/84 90/112/84 91/114/84 99/115/84
f 99/115/85 91/114/85 92/116/85 100/117/85
f 100/117/86 92/116/86 93/118/86 101/119/86
f 95/120/87 94/121/87 148/122/87 147/123/87
f 147/123/88 146/124/88 96/109/88 95/120/88
f 89/110/89 153/125/89 152/126/89 90/112/89
f 101/119/90 93/118/90 94/127/90 102/128/90
f 93/118/91 149/129/91 148/130/91 94/127/91
f 102/131/92 94/121/92 95/120/92 103/132/92
f 151/133/93 150/134/93 92/116/93 91/114/93
f 152/126/94 151/133/94 91/114/94 90/112/94
f 103/132/95 95/120/95 96/109/95 104/108/95
f 145/135/96 138/136/96 75/105/96 73/104/96
f 138/136/97 139/137/97 76/100/97 75/105/97
f 139/137/98 140/138/98 77/101/98 76/100/98
f 140/138/99 141/139/99 78/96/99 77/101/99
f 141/139/100 142/140/100 79/97/100 78/96/100
f 142/141/101 143/142/101 80/85/101 79/97/101
f 143/142/102 144/143/102 74/86/102 80/85/102
f 144/144/103 145/135/103 73/104/103 74/107/103
f 105/145/104 144/143/104 143/142/104 106/146/104
f 106/146/105 143/142/105 142/141/105 107/147/105
f 107/148/106 142/140/106 141/139/106 108/149/106
f 108/149/107 141/139/107 140/138/107 109/150/107
f 109/150/108 140/138/108 139/137/108 110/151/108
f 110/151/109 139/137/109 138/136/109 111/152/109
f 111/152/110 138/136/110 145/135/110 112/153/110
f 97/111/111 112/153/111 105/154/111 104/108/111
f 137/155/112 113/156/112 115/157/112 116/158/112
f 114/159/113 137/155/113 116/158/113 117/160/113
f 113/156/114 124/161/114 115/157/114
f 116/158/115 115/157/115 118/162/115 119/163/115
f 117/160/116 116/158/116 119/163/116 120/164/116
f 115/157/117 124/165/117 118/162/117
f 119/163/118 118/162/118 121/166/118 122/167/118
f 120/164/119 119/163/119 122/167/119 123/168/119
f 118/162/120 124/169/120 121/166/120
f 122/167/121 121/166/121 125/170/121 126/171/121
f 123/168/122 122/167/122 126/171/122 127/172/122
f 121/166/123 124/173/123 125/170/123
f 126/171/124 125/170/124 128/174/124 129/175/124
f 127/172/125 126/171/125 129/175/125 130/176/125
f 125/170/126 124/177/126 128/174/126
f 128/174/127 124/178/127 131/179/127
f 129/175/128 128/174/128 131/179/128 132/180/128
f 130/176/129 129/175/129 132/180/129 133/181/129
f 133/182/130 132/183/130 135/184/130 136/185/130
f 131/186/131 124/187/131 134/188/131
f 132/183/132 131/186/132 134/188/132 135/184/132
f 136/185/133 135/184/133 137/155/133 114/159/133
f 134/188/134 124/189/134 113/156/134
f 135/184/135 134/188/135 113/156/135 137/155/135
f 150/134/136 149/129/136 93/118/136 92/116/136
f 104/108/137 105/145/137 106/146/137 103/132/137
f 103/132/138 106/146/138 107/147/138 102/131/138
f 102/128/139 107/148/139 108/149/139 101/119/139
f 101/119/140 108/149/140 109/150/140 100/117/140
f 100/117/141 109/150/141 110/151/141 99/115/141
f 99/115/142 110/151/142 111/152/142 98/113/142
f 98/113/143 111/152/143 112/153/143 97/111/143
f 112/153/144 145/135/144 144/144/144 105/154/144
f 89/110/145 96/109/145 146/124/145 153/125/145
f 154/190/146 157/191/146 136/185/146 114/159/146
f 157/191/147 159/192/147 133/182/147 136/185/147
f 159/193/148 161/194/148 130/176/148 133/181/148
f 161/194/149 163/195/149 127/172/149 130/176/149
f 163/195/150 165/196/150 123/168/150 127/172/150
f 165/196/151 167/197/151 120/164/151 123/168/151
f 167/197/152 169/198/152 117/160/152 120/164/152
f 169/198/153 154/190/153 114/159/153 117/160/153
f 166/199/154 164/200/154 174/201/154
f 168/202/155 155/203/155 154/190/155 169/198/155
f 166/199/156 152/126/156 173/204/156
f 166/199/157 168/202/157 169/198/157 167/197/157
f 152/126/158 166/199/158 174/205/158
f 164/200/159 166/199/159 167/197/159 165/196/159
f 158/206/160 148/122/160 170/207/160
f 162/208/161 164/200/161 165/196/161 163/195/161
f 147/123/162 148/122/162 175/209/162
f 160/210/163 162/208/163 163/195/163 161/194/163
f 160/210/164 158/211/164 170/212/164
f 158/211/165 160/210/165 161/194/165 159/193/165
f 148/122/166 158/206/166 175/213/166
f 156/214/167 158/206/167 159/192/167 157/191/167
f 168/202/168 166/199/168 173/215/168
f 155/203/169 156/214/169 157/191/169 154/190/169
f 148/130/170 149/129/170 170/216/170
f 149/129/171 160/210/171 170/217/171
f 153/125/172 168/202/172 173/218/172
f 155/203/173 146/124/173 171/219/173
f 164/200/174 162/208/174 172/220/174
f 146/124/175 147/123/175 171/221/175
f 156/214/176 155/203/176 171/222/176
f 162/208/177 150/134/177 172/223/177
f 150/134/178 151/133/178 172/224/178
f 147/123/179 156/214/179 171/225/179
f 151/133/180 164/200/180 172/226/180
f 152/126/181 153/125/181 173/227/181
f 158/206/182 156/214/182 175/228/182
f 160/210/183 149/129/183 176/229/183
f 149/129/184 150/134/184 176/230/184
f 168/202/185 153/125/185 177/231/185
f 146/124/186 155/203/186 177/232/186
f 150/134/187 162/208/187 176/233/187
f 155/203/188 168/202/188 177/234/188
f 162/208/189 160/210/189 176/235/189
f 151/133/190 152/126/190 174/236/190
f 156/214/191 147/123/191 175/237/191
f 153/125/192 146/124/192 177/238/192
f 164/200/193 151/133/193 174/239/193
f 18/72/194 17/73/194 178/37/194 179/33/194
f 19/71/195 18/72/195 179/33/195 180/29/195
f 20/70/196 19/71/196 180/29/196 181/25/196
f 21/69/197 20/70/197 181/25/197 182/21/197
f 22/68/198 21/69/198 182/21/198 183/17/198
f 23/67/199 22/68/199 183/17/199 184/13/199
f 24/65/200 23/67/200 184/13/200 185/6/200
f 17/66/201 24/65/201 185/6/201 178/5/201
